# xmcd CD database file
#
# Track frame offsets:
#	187
#	34225
#	62582
#	79407
#	109425
#	132345
#	154770
#	175405
#
# Disc length: 2637 seconds
#
# Revision: 0
# Processed by: cddbd v1.5.2PL0 Copyright (c) Steve Scherf et al.
# Submitted via: CDex 1.51
#
DISCID=6e0a4b08
DTITLE=Art Hodes and the Magnolia Jazz Band - Art Hodes and the Magnolia Jazz Band Volume Two
DYEAR=1900
DGENRE=Jazz
TTITLE0=How Long, How Long Blues
TTITLE1=Just A Little While To Stay Here
TTITLE2=Hurry Down Sunshine
TTITLE3=Linger Awhile
TTITLE4=Magnolia Blues
TTITLE5=Some Of These Days
TTITLE6=Beale Street Blues
TTITLE7=I'm Looking Over A Four Leaf Clover
EXTD=
EXTT0=
EXTT1=
EXTT2=
EXTT3=
EXTT4=
EXTT5=
EXTT6=
EXTT7=
PLAYORDER=
